# xmcd CD database file
# Copyright (C) 1993-1996 Ti Kan
#
# Track frame offsets:
#	150
#	15385
#	36750
#	61564
#	74415
#	95157
#	119407
#	134525
#	152435
#	177265
#	191487
#	198995
#	220575
#
# Disc length: 3247 seconds
#
# Revision: 1
# Processed by: cddbd v1.4b41PL1 Copyright (c) Steve Scherf et al.
# Submitted via: EasyCD2 v3.00 - Copyright (c) 1997 Greg Leichner
#
DISCID=ae0cad0d
DTITLE=Boyz II Men - Yo Te Voy A Amar
DYEAR=1900
DGENRE=
TTITLE0=No Dejemos Que Muera El Amor
TTITLE1=Yo Te Voy A Amar
TTITLE2=Me Rindo Ante Ti
TTITLE3=Yesterday (Spanish Version)
TTITLE4=Thank You
TTITLE5=Trying Times
TTITLE6=Water Runs Dry
TTITLE7=I'll Make Love To You
TTITLE8=On Bended Knee
TTITLE9=Yesterday
TTITLE10=Khalil (Interlude)
TTITLE11=U Know
TTITLE12=50 Candles
EXTD=
EXTT0=
EXTT1=
EXTT2=
EXTT3=
EXTT4=
EXTT5=
EXTT6=
EXTT7=
EXTT8=
EXTT9=
EXTT10=
EXTT11=
EXTT12=
PLAYORDER=
